  <svg xmlns="http://www.w3.org/2000/svg" viewBox="0 0 495.7 92.2" fill="#e84241" alt="Kave Home®" xmlns:v="https://vecta.io/nano"><path d="M131.1 61.1v20.7H121V31.4h10.1v20.4h4.7l16.7-20.4h12.6L144 56l22.7 25.8h-13.1l-17.9-20.7h-4.6zm42.5 3.2c0 5.3 3.5 9.6 9 9.6s9-4.1 9-9.6-3.6-9.6-9-9.6-9 4.3-9 9.6m17.7 17.5V78a12.94 12.94 0 0 1-10.4 4.8c-9.7 0-16.9-7.9-16.9-18.4S171.2 46 180.9 46a12.52 12.52 0 0 1 10.4 4.8v-3.9h9.2v34.9zm25.7 0l-13.8-34.9h10.2l9 25 9.1-25h9.9l-13.6 34.9H217zm33.7-20.7h15.4c-.9-4.5-3.5-7-7.6-7-4.4 0-7 2.6-7.8 7m24.9 3.2a30.48 30.48 0 0 1-.2 3.2h-24.7c.9 5 4.5 7.2 9 7.2a14.14 14.14 0 0 0 8.8-3.3l5.5 6.1c-4 3.6-9 5.3-14.9 5.3-10.7 0-18.1-7.3-18.1-18.3S248.2 46 258.6 46c10.1 0 17 7.4 17 18.3m61.1-12.4V31.8h9.9v49.8h-9.9V61.1h-24v20.5h-9.9V31.8h9.9v20.1h24zm24.9 12.4c0 5.6 3.9 9.5 9.1 9.5s9.2-3.9 9.2-9.5-3.9-9.5-9.2-9.5-9.1 4-9.1 9.5m27.8 0c0 10.4-7.9 18.1-18.7 18.1s-18.6-7.7-18.6-18.1 7.9-18.1 18.6-18.1 18.7 7.8 18.7 18.1m60.5-4.7v21.9h-9.2v-19c0-5-2.5-7.7-6.7-7.7-4 0-7.3 2.6-7.3 7.8v18.9h-9.3v-19c0-5-2.5-7.7-6.7-7.7-4 0-7.3 2.6-7.3 7.8v18.9h-9.3V47h9v4.1c2.5-3.7 6.2-5 10.1-5 5 0 9.1 2.2 11.4 5.9 2.7-4.4 7.2-5.9 11.7-5.9 8.2.1 13.6 5.5 13.6 13.5m14.1 1.5h15.3c-.9-4.4-3.5-6.9-7.5-6.9-4.4 0-7 2.6-7.8 6.9m24.6 3.2a26.89 26.89 0 0 1-.2 3.1H464c.9 5 4.5 7.1 8.9 7.1a13.88 13.88 0 0 0 8.7-3.3l5.4 6c-3.9 3.6-8.8 5.2-14.7 5.2-10.5 0-17.9-7.2-17.9-18s7.1-18.2 17.4-18.2c10 0 16.8 7.4 16.8 18.1M84.3 50.2v5L10.7 75.5V50.1a36.8 36.8 0 0 1 73.6.1m0 14.1v17.1h-62zM79.8 18a45.63 45.63 0 0 0-64.4 0A45.24 45.24 0 0 0 2 50.2v40.1h91.2V50.2A45.66 45.66 0 0 0 79.8 18"></path></svg>